<svg xmlns="http://www.w3.org/2000/svg" xmlns:xlink="http://www.w3.org/1999/xlink">
    <defs>
        <symbol xmlns="http://www.w3.org/2000/svg" viewBox="0 0 32 32" id="facebook">
            <title>facebook</title>
            <path d="M23.484 5.308H20.67c-1.027 0-1.72.23-2.079.692-.358.462-.537 1.154-.537 2.077v3.635h5.25l-.698 5.692h-4.552V32H12.57V17.404H8v-5.692h4.57V7.519c0-2.384.621-4.234 1.864-5.548C15.676.657 17.33 0 19.398 0c1.756 0 3.118.077 4.086.23v5.078z"/>
        </symbol>
        <symbol xmlns="http://www.w3.org/2000/svg" viewBox="0 0 32 32" id="github">
            <title>github</title>
            <path d="M28.948 25.145c-2.035 2.756-4.663 4.663-7.886 5.721-.375.069-.649.02-.822-.144a.818.818 0 0 1-.26-.619v-4.35c0-1.334-.362-2.31-1.084-2.928a14.403 14.403 0 0 0 2.135-.371 8.56 8.56 0 0 0 1.959-.804 5.81 5.81 0 0 0 1.687-1.371c.451-.543.82-1.265 1.104-2.165.285-.9.427-1.935.427-3.104 0-1.663-.548-3.079-1.646-4.247.514-1.25.459-2.653-.166-4.206-.39-.124-.952-.048-1.688.227-.736.274-1.375.577-1.916.907L20 8.186a14.93 14.93 0 0 0-4-.536 14.93 14.93 0 0 0-4 .536 18.513 18.513 0 0 0-.885-.557c-.368-.22-.948-.485-1.74-.794-.792-.31-1.389-.402-1.792-.278-.61 1.553-.66 2.955-.146 4.206-1.097 1.168-1.645 2.584-1.645 4.247 0 1.169.142 2.2.427 3.093.284.894.65 1.615 1.093 2.165A5.599 5.599 0 0 0 8.99 21.65a8.56 8.56 0 0 0 1.958.804c.632.165 1.344.288 2.135.37-.555.496-.895 1.204-1.02 2.125-.292.137-.605.24-.938.309-.333.069-.73.103-1.188.103-.458 0-.913-.148-1.364-.443-.451-.296-.837-.725-1.156-1.289a3.34 3.34 0 0 0-1.01-1.072c-.41-.275-.754-.44-1.032-.495L4.958 22c-.291 0-.493.031-.604.093-.11.062-.146.14-.104.237.042.096.104.193.187.289.084.096.174.178.271.247l.146.103c.306.138.608.399.906.784.299.385.518.735.657 1.051l.208.475c.18.522.486.945.917 1.268.43.323.896.529 1.396.618.5.09.982.138 1.447.145.466.006.851-.018 1.157-.073l.479-.082c0 .522.003 1.134.01 1.835l.01 1.113c0 .248-.09.454-.27.619-.18.165-.458.213-.834.144-3.222-1.058-5.85-2.965-7.885-5.721C1.017 22.388 0 19.285 0 15.835c0-2.873.715-5.522 2.146-7.948a15.847 15.847 0 0 1 5.823-5.763C10.42.708 13.097 0 16 0c2.903 0 5.58.708 8.031 2.124a15.847 15.847 0 0 1 5.823 5.763C31.284 10.313 32 12.962 32 15.835c0 3.45-1.017 6.553-3.052 9.31z"/>
        </symbol>
        <symbol xmlns="http://www.w3.org/2000/svg" viewBox="0 0 32 32" id="instagram">
            <title>instagram</title>
            <path d="M16 2.884c4.272 0 4.779.016 6.467.093 4.336.198 6.361 2.255 6.558 6.559.078 1.687.092 2.193.092 6.465 0 4.274-.016 4.779-.092 6.466-.198 4.3-2.218 6.361-6.558 6.558-1.688.078-2.192.094-6.467.094-4.272 0-4.779-.016-6.465-.094-4.347-.198-6.362-2.265-6.559-6.56-.077-1.686-.093-2.192-.093-6.465 0-4.272.017-4.777.093-6.465.199-4.303 2.219-6.362 6.559-6.559 1.688-.076 2.193-.092 6.465-.092zM16 0c-4.345 0-4.89.019-6.596.096C3.594.363.364 3.586.097 9.403.02 11.11 0 11.655 0 16c0 4.345.019 4.89.096 6.597.267 5.811 3.49 9.04 9.307 9.307C11.11 31.981 11.655 32 16 32c4.345 0 4.89-.019 6.597-.096 5.806-.267 9.043-3.49 9.306-9.307C31.98 20.891 32 20.345 32 16c0-4.345-.019-4.89-.096-6.596-.261-5.805-3.49-9.04-9.305-9.307C20.89.02 20.345 0 16 0zm0 7.784a8.217 8.217 0 0 0 0 16.433 8.217 8.217 0 0 0 0-16.433zm0 13.55a5.333 5.333 0 1 1 0-10.667 5.334 5.334 0 0 1 0 10.666zM24.541 5.54a1.92 1.92 0 1 0 0 3.842 1.92 1.92 0 0 0 0-3.842z"/>
        </symbol>
        <symbol xmlns="http://www.w3.org/2000/svg" viewBox="0 0 32 32" id="twitter">
            <title>twitter</title>
            <path d="M32 5.903a13.888 13.888 0 0 1-3.29 3.456c.014.193.021.482.021.869 0 1.793-.257 3.582-.772 5.369a19.575 19.575 0 0 1-2.345 5.14 20.1 20.1 0 0 1-3.746 4.356c-1.448 1.262-3.195 2.27-5.239 3.02-2.044.753-4.23 1.128-6.558 1.128-3.668 0-7.025-1-10.071-3 .474.056 1.002.083 1.584.083 3.045 0 5.76-.952 8.142-2.855a6.318 6.318 0 0 1-3.817-1.335 6.535 6.535 0 0 1-2.315-3.3c.447.07.86.104 1.238.104.583 0 1.158-.076 1.726-.228-1.516-.317-2.771-1.086-3.766-2.307-.995-1.22-1.493-2.637-1.493-4.251v-.083c.921.524 1.91.807 2.965.848a6.63 6.63 0 0 1-2.132-2.38 6.61 6.61 0 0 1-.792-3.185c0-1.214.298-2.338.894-3.373a18.664 18.664 0 0 0 5.98 4.935 18.01 18.01 0 0 0 7.542 2.058 7.558 7.558 0 0 1-.162-1.53c0-1.849.64-3.425 1.919-4.728 1.279-1.304 2.825-1.955 4.64-1.955 1.894 0 3.492.703 4.791 2.11a12.715 12.715 0 0 0 4.163-1.614c-.501 1.586-1.462 2.814-2.884 3.683 1.26-.138 2.518-.483 3.777-1.035z"/>
        </symbol>
    </defs>
</svg>
